<svg width="16.000000" height="16.000000" viewBox="0 0 16 16" fill="none" xmlns="http://www.w3.org/2000/svg" xmlns:xlink="http://www.w3.org/1999/xlink">
	<desc>
			Created with Pixso.
	</desc>
	<defs>
		<clipPath id="clip2_27">
			<rect id="Cappuccino" width="16.000000" height="16.000000" fill="white" fill-opacity="0"/>
		</clipPath>
	</defs>
	<rect id="Cappuccino" width="16.000000" height="16.000000" fill="#FFFFFF" fill-opacity="0"/>
	<g clip-path="url(#clip2_27)">
		<path id="Vector" d="M6.13 2.48C6.77 2.46 7.38 2.19 7.89 1.71L7.88 1.71C8.44 1.21 9.11 0.93 9.8 0.91L9.81 0.91C10.16 0.86 10.52 0.89 10.86 0.99L10.84 0.99C11.1 1.08 11.24 1.22 11.26 1.41C11.3 1.58 11.22 1.72 11.04 1.83C10.83 1.96 10.6 2.03 10.37 2.04L10.37 2.04C10.1 2.12 9.82 2.07 9.58 1.92L9.58 1.92C9.52 1.88 9.46 1.83 9.41 1.75C9.36 1.68 9.32 1.6 9.3 1.51L9.3 1.5C9.03 1.53 8.86 1.6 8.79 1.72C8.73 1.82 8.7 1.94 8.71 2.07L8.71 2.06C8.74 2.25 8.91 2.42 9.22 2.56C9.48 2.67 9.77 2.72 10.08 2.72C10.23 2.72 10.38 2.71 10.53 2.68L10.51 2.69L10.53 2.69C11 2.69 11.44 2.5 11.81 2.19L11.8 2.2C11.9 2.09 11.98 1.96 12.03 1.81C12.08 1.65 12.1 1.49 12.08 1.32L12.08 1.33C12.01 0.93 11.75 0.59 11.27 0.32C10.62 0.02 9.93 -0.07 9.24 0.05L9.27 0.05C8.16 0.18 7.45 0.47 7.15 0.93C6.73 1.44 6.16 1.73 5.58 1.73L5.56 1.73L5.56 1.73C5.31 1.77 5.07 1.75 4.83 1.66L4.84 1.67C4.77 1.65 4.71 1.6 4.65 1.54C4.6 1.48 4.56 1.4 4.53 1.31L4.53 1.31C4.53 1.24 4.54 1.17 4.57 1.11C4.6 1.05 4.65 1 4.7 0.98L4.7 0.98C4.83 0.9 4.99 0.85 5.15 0.83L5.16 0.83C5.33 0.82 5.5 0.83 5.67 0.86L5.66 0.86C5.81 0.88 5.95 0.93 6.08 1L6.07 0.99C6.13 0.97 6.18 0.92 6.22 0.86L6.22 0.86C6.23 0.84 6.24 0.81 6.24 0.79C6.25 0.76 6.25 0.74 6.24 0.71L6.24 0.71C6.21 0.56 6.09 0.46 5.89 0.4C5.65 0.34 5.39 0.32 5.14 0.35L5.15 0.35C4.6 0.42 4.28 0.57 4.19 0.81C4.11 0.99 4.07 1.19 4.08 1.39L4.08 1.39C4.13 1.59 4.22 1.78 4.33 1.93C4.45 2.08 4.59 2.2 4.76 2.27L4.76 2.27C5.06 2.42 5.41 2.52 5.77 2.52C5.9 2.52 6.02 2.5 6.14 2.48L6.13 2.49L6.13 2.48ZM13.63 5.64C13.29 5.75 12.92 5.84 12.53 5.92C12.13 6 11.72 6.07 11.28 6.12C10.84 6.17 10.38 6.22 9.89 6.25C9.4 6.29 8.89 6.3 8.37 6.3C7.83 6.3 7.31 6.29 6.82 6.25C6.33 6.22 5.86 6.17 5.42 6.11C4.98 6.05 4.56 5.98 4.17 5.9C3.77 5.82 3.4 5.74 3.06 5.64C2.55 5.49 2.05 5.28 1.58 5L1.62 5.02C1.36 4.88 1.12 4.66 0.94 4.37L0.94 4.37C1 4.95 1.08 5.45 1.18 5.94L1.17 5.86C1.29 6.45 1.42 6.92 1.56 7.39L1.53 7.29C1.37 7.41 1.21 7.55 1.07 7.71L1.07 7.71C0.93 7.87 0.79 8.05 0.67 8.24L0.67 8.25C0.43 8.6 0.26 9.01 0.15 9.45L0.14 9.47C0.03 9.9 -0.02 10.34 0 10.79L0 10.78C0.01 11.23 0.12 11.64 0.28 11.99L0.28 11.98C0.45 12.34 0.67 12.67 0.93 12.93L0.94 12.94C1.19 13.2 1.49 13.38 1.81 13.48L1.83 13.49C2.16 13.57 2.5 13.58 2.84 13.49L2.82 13.5C2.98 13.46 3.12 13.41 3.26 13.34L3.24 13.35C3.39 13.27 3.53 13.21 3.67 13.16L3.65 13.16C3.38 13.16 3.1 13.09 2.85 12.97L2.86 12.98C2.59 12.84 2.34 12.66 2.11 12.43L2.12 12.44C1.87 12.2 1.65 11.92 1.48 11.59L1.47 11.58C1.29 11.25 1.18 10.87 1.14 10.47L1.14 10.46C1.08 10.09 1.08 9.7 1.14 9.33L1.14 9.35C1.21 8.99 1.33 8.64 1.5 8.33L1.49 8.34C1.54 8.29 1.58 8.24 1.61 8.18C1.65 8.13 1.69 8.08 1.73 8.02C1.83 8.33 1.93 8.63 2.04 8.92C2.16 9.22 2.28 9.5 2.41 9.78C2.66 10.28 2.92 10.75 3.19 11.21C3.46 11.67 3.72 12.13 3.99 12.6C4.09 12.83 4.19 13.11 4.27 13.39L4.29 13.44C4.35 13.66 4.42 13.94 4.46 14.22L4.47 14.26C4.65 14.56 4.86 14.82 5.1 15.03L5.11 15.04C5.35 15.25 5.62 15.42 5.92 15.53L5.94 15.54C6.27 15.68 6.66 15.81 7.06 15.88L7.09 15.89C7.45 15.96 7.86 16 8.28 16L8.37 16C8.8 16 9.22 15.95 9.65 15.87L9.6 15.88C10.03 15.8 10.44 15.67 10.85 15.5L10.8 15.52C11.09 15.4 11.36 15.23 11.6 15.02L11.59 15.03C11.83 14.82 12.05 14.55 12.22 14.25L12.22 14.24L12.27 14.24C12.31 14 12.37 13.73 12.44 13.44C12.52 13.11 12.61 12.83 12.73 12.56L12.72 12.58C12.97 12.12 13.23 11.66 13.5 11.2C13.77 10.75 14.03 10.27 14.3 9.76C14.65 8.98 14.93 8.16 15.16 7.31L15.19 7.2C15.42 6.33 15.61 5.42 15.74 4.51L15.75 4.39C15.56 4.68 15.32 4.91 15.05 5.07L15.03 5.08C14.6 5.34 14.14 5.53 13.67 5.64L13.63 5.65L13.63 5.64ZM3.06 4.26C3.4 4.37 3.77 4.46 4.17 4.54C4.56 4.62 4.98 4.69 5.41 4.74C5.85 4.79 6.31 4.83 6.8 4.86C7.28 4.89 7.79 4.9 8.32 4.9C8.86 4.9 9.38 4.89 9.86 4.86C10.35 4.83 10.81 4.79 11.25 4.74C11.68 4.69 12.1 4.62 12.48 4.53C12.87 4.45 13.24 4.36 13.6 4.26C14.17 4.11 14.73 3.85 15.25 3.5L15.22 3.52C15.58 3.26 15.75 2.99 15.75 2.72C15.75 2.61 15.73 2.51 15.69 2.41C15.65 2.31 15.59 2.22 15.52 2.15L15.52 2.15C15.33 1.95 15.11 1.78 14.87 1.67L14.86 1.66C14.92 1.72 14.98 1.79 15.02 1.87L15.02 1.87C15.06 1.95 15.08 2.05 15.08 2.14C15.08 2.42 14.92 2.68 14.59 2.9C14.16 3.17 13.66 3.38 13.14 3.51L13.1 3.52C12.48 3.68 11.78 3.82 10.99 3.93C10.24 4.04 9.37 4.1 8.48 4.1L8.36 4.1L8.37 4.1L8.28 4.1C7.4 4.1 6.52 4.04 5.66 3.93L5.77 3.94C5.02 3.85 4.27 3.71 3.53 3.51L3.67 3.54C3.15 3.4 2.65 3.18 2.18 2.88L2.21 2.9C1.88 2.68 1.72 2.43 1.72 2.16L1.72 2.16C1.72 2.04 1.74 1.92 1.79 1.82L1.79 1.82C1.86 1.69 1.94 1.58 2.05 1.51L2.05 1.5C1.72 1.65 1.41 1.85 1.11 2.09L1.13 2.07C0.95 2.21 0.83 2.45 0.82 2.72L0.82 2.72C0.84 3 1.04 3.28 1.4 3.54C1.88 3.86 2.44 4.11 3.02 4.26L3.06 4.26L3.06 4.26Z" fill="#FFFFFF" fill-opacity="1.000000" fill-rule="nonzero"/>
	</g>
</svg>
