<svg width="16.000000" height="16.000000" viewBox="0 0 16 16" fill="none" xmlns="http://www.w3.org/2000/svg" xmlns:xlink="http://www.w3.org/1999/xlink">
	<desc>
			Created with Pixso.
	</desc>
	<defs>
		<clipPath id="clip3_73">
			<rect id="Cold Brew" width="16.000000" height="16.000000" fill="white" fill-opacity="0"/>
		</clipPath>
	</defs>
	<rect id="Cold Brew" width="16.000000" height="16.000000" fill="#FFFFFF" fill-opacity="0"/>
	<g clip-path="url(#clip3_73)">
		<path id="Vector" d="M13.47 4.27L13.38 3.83C13.31 3.43 13.13 3.05 12.72 2.91C12.59 2.86 12.44 2.84 12.34 2.75C12.24 2.65 12.21 2.5 12.18 2.37C12.14 2.11 12.1 1.86 12.06 1.61C12.02 1.39 11.99 1.15 11.89 0.95C11.76 0.69 11.49 0.53 11.22 0.43C11.09 0.38 10.95 0.33 10.81 0.3C10.14 0.12 9.44 0.06 8.76 0.02C7.93 -0.02 7.11 -0.01 6.29 0.06C5.68 0.12 5.04 0.19 4.46 0.4C4.24 0.47 4.03 0.57 3.86 0.73C3.67 0.93 3.6 1.24 3.75 1.49C3.85 1.67 4.02 1.8 4.21 1.88C4.45 1.99 4.7 2.07 4.96 2.12C5.67 2.28 6.41 2.34 7.15 2.37C7.96 2.4 8.77 2.38 9.58 2.29C9.78 2.27 9.98 2.24 10.18 2.21C10.41 2.18 10.56 1.87 10.49 1.66C10.41 1.4 10.19 1.3 9.94 1.34C9.63 1.39 9.3 1.41 9.02 1.44C8.23 1.49 7.44 1.49 6.66 1.44C6.4 1.43 6.14 1.4 5.89 1.37C5.83 1.37 5.77 1.36 5.72 1.35C5.55 1.32 5.39 1.29 5.23 1.26C5.16 1.24 5.16 1.14 5.23 1.12L5.24 1.12C5.42 1.08 5.61 1.05 5.79 1.02L5.8 1.02C5.88 1.02 5.97 1 6.06 0.99C6.82 0.91 7.58 0.88 8.34 0.91C8.79 0.92 9.24 0.95 9.69 1.01L9.84 1.03C10.02 1.05 10.2 1.08 10.37 1.12C10.63 1.18 10.97 1.2 11.09 1.48C11.12 1.58 11.14 1.68 11.16 1.77L11.37 2.76C11.38 2.78 11.38 2.8 11.37 2.83C11.37 2.85 11.36 2.87 11.35 2.88C11.33 2.9 11.32 2.92 11.3 2.93C11.28 2.94 11.26 2.95 11.24 2.95L11.24 2.95C11.21 2.95 11.19 2.96 11.16 2.96C10.11 3.09 9.06 3.16 8 3.16C6.95 3.16 5.91 3.09 4.87 2.95C4.77 2.94 4.67 2.93 4.59 2.91C4.37 2.88 4.16 2.84 3.94 2.81C3.68 2.76 3.43 2.79 3.19 2.91C3 3.02 2.84 3.18 2.74 3.38C2.64 3.59 2.61 3.82 2.56 4.05C2.52 4.28 2.45 4.52 2.47 4.75C2.53 5.25 2.88 5.66 3.39 5.75C5.88 6.2 8.43 6.28 10.95 6C11 6 11.05 6 11.09 6.02C11.14 6.04 11.18 6.06 11.21 6.1C11.25 6.13 11.27 6.17 11.29 6.22C11.31 6.26 11.31 6.31 11.31 6.36L11.26 6.82L10.58 13.43C10.55 13.7 10.55 13.98 10.5 14.25C10.42 14.68 10.13 14.94 9.71 15.03C9.32 15.12 8.93 15.17 8.54 15.17C8.1 15.17 7.66 15.15 7.23 15.15C6.76 15.16 6.19 15.11 5.83 14.77C5.51 14.46 5.47 13.99 5.43 13.57L4.94 8.9L4.73 6.83C4.7 6.6 4.54 6.37 4.27 6.38C4.05 6.39 3.79 6.58 3.82 6.83L3.97 8.29L4.61 14.37C4.7 15.26 5.39 15.75 6.24 15.88C6.73 15.96 7.24 15.98 7.74 15.99C8.39 16 9.04 16.02 9.67 15.9C10.61 15.73 11.31 15.11 11.41 14.13C11.64 11.91 11.87 9.69 12.1 7.47L12.24 6.08C12.25 6.01 12.28 5.94 12.32 5.89C12.37 5.84 12.43 5.81 12.5 5.79C12.77 5.74 13.02 5.65 13.22 5.45C13.52 5.12 13.58 4.7 13.47 4.27L13.47 4.27ZM12.49 4.79C12.39 4.88 12.25 4.92 12.1 4.94C10.49 5.18 8.86 5.3 7.23 5.25C6.06 5.21 4.91 5.08 3.76 4.92C3.64 4.9 3.52 4.88 3.44 4.8C3.3 4.64 3.37 4.32 3.41 4.13C3.44 3.96 3.51 3.73 3.72 3.7C4.04 3.66 4.41 3.8 4.73 3.85C5.12 3.91 5.51 3.95 5.89 3.99C7.55 4.14 9.23 4.12 10.87 3.9C11.17 3.86 11.47 3.81 11.77 3.76C12.04 3.71 12.33 3.62 12.49 3.89C12.6 4.08 12.62 4.33 12.6 4.54C12.59 4.64 12.55 4.72 12.49 4.79L12.49 4.79ZM8.38 7.39C7.81 7.63 7.15 7.91 6.31 7.91C5.95 7.91 5.6 7.86 5.26 7.77L5.85 13.77C5.89 14.29 6.32 14.69 6.85 14.69C6.85 14.69 7.68 14.73 7.95 14.73C8.25 14.73 9.14 14.69 9.14 14.69C9.66 14.69 10.1 14.29 10.14 13.77L10.77 7.14C10.49 7.03 10.19 6.98 9.89 6.98C9.34 6.98 8.89 7.17 8.38 7.39Z" fill="#3A3A3A" fill-opacity="1.000000" fill-rule="nonzero"/>
	</g>
</svg>
