<svg width="16.000000" height="16.000000" viewBox="0 0 16 16" fill="none" xmlns="http://www.w3.org/2000/svg" xmlns:xlink="http://www.w3.org/1999/xlink">
	<desc>
			Created with Pixso.
	</desc>
	<defs>
		<clipPath id="clip3_79">
			<rect id="Expresso" width="16.000000" height="16.000000" fill="white" fill-opacity="0"/>
		</clipPath>
	</defs>
	<rect id="Expresso" width="16.000000" height="16.000000" fill="#FFFFFF" fill-opacity="0"/>
	<g clip-path="url(#clip3_79)">
		<path id="Vector" d="M1.1 6.8L1.1 10.84C1.1 11.38 1.2 11.9 1.41 12.39C1.61 12.88 1.91 13.33 2.29 13.71C2.66 14.08 3.11 14.38 3.6 14.58C4.09 14.79 4.61 14.89 5.15 14.89L8.09 14.89C8.62 14.89 9.15 14.79 9.64 14.58C10.13 14.38 10.57 14.08 10.95 13.71C11.32 13.33 11.62 12.88 11.83 12.39C12.03 11.9 12.13 11.38 12.13 10.84L12.13 6.8L1.1 6.8ZM9.5 0.12C9.62 0.22 9.69 0.35 9.7 0.5C9.71 0.64 9.67 0.79 9.57 0.9C9.06 1.51 8.95 1.93 9.1 2.21C9.15 2.3 9.58 2.97 9.68 3.18C9.9 3.64 9.93 4.1 9.74 4.63C9.6 5.02 9.39 5.38 9.13 5.7L12.24 5.7C12.59 5.71 12.84 5.8 13 5.96C13.09 6.05 13.15 6.17 13.19 6.31L13.24 6.31C13.97 6.31 14.67 6.6 15.19 7.12C15.71 7.63 16 8.33 16 9.07C16 9.8 15.71 10.5 15.19 11.02C14.67 11.53 13.97 11.83 13.24 11.83L13.14 11.82C12.92 13 12.29 14.06 11.37 14.82C10.44 15.58 9.28 15.99 8.09 16L5.15 16C4.47 16 3.8 15.86 3.17 15.6C2.55 15.34 1.98 14.96 1.5 14.49C1.03 14.01 0.65 13.44 0.39 12.82C0.13 12.19 0 11.52 0 10.84L0 6.66C-0.02 6.32 0.05 6.07 0.19 5.93C0.34 5.78 0.55 5.71 0.84 5.7L3.2 5.7C3.23 5.65 3.27 5.6 3.32 5.56C3.8 5.15 4.12 4.71 4.28 4.26C4.37 4.01 4.36 3.86 4.27 3.65C4.2 3.51 3.81 2.89 3.73 2.75C3.3 1.99 3.54 1.12 4.31 0.19C4.36 0.13 4.42 0.09 4.48 0.05C4.55 0.01 4.62 -0.01 4.69 -0.02C4.76 -0.02 4.84 -0.02 4.91 0.01C4.98 0.03 5.05 0.06 5.1 0.11C5.16 0.16 5.21 0.22 5.24 0.28C5.27 0.35 5.29 0.42 5.3 0.49C5.3 0.57 5.29 0.64 5.27 0.71C5.25 0.78 5.21 0.85 5.16 0.9C4.65 1.51 4.53 1.93 4.69 2.21C4.74 2.3 5.17 2.97 5.26 3.18C5.48 3.65 5.51 4.1 5.32 4.63C5.18 5.02 4.98 5.38 4.72 5.7L5.41 5.7C5.44 5.65 5.48 5.6 5.52 5.56C6.01 5.15 6.33 4.71 6.49 4.26C6.58 4.01 6.57 3.86 6.47 3.65C6.41 3.51 6.02 2.89 5.94 2.75C5.51 1.99 5.74 1.12 6.52 0.19C6.57 0.13 6.62 0.08 6.69 0.05C6.75 0.01 6.83 -0.01 6.9 -0.02C6.97 -0.03 7.05 -0.02 7.12 0C7.19 0.02 7.26 0.06 7.32 0.1C7.37 0.15 7.42 0.21 7.45 0.28C7.49 0.34 7.51 0.42 7.51 0.49C7.52 0.57 7.51 0.64 7.48 0.71C7.46 0.78 7.42 0.85 7.37 0.9C6.85 1.51 6.74 1.93 6.9 2.21C6.95 2.3 7.37 2.97 7.47 3.18C7.69 3.65 7.72 4.1 7.53 4.63C7.39 5.02 7.19 5.38 6.93 5.7L7.62 5.7C7.65 5.65 7.68 5.6 7.73 5.56C8.22 5.15 8.54 4.71 8.7 4.26C8.79 4.01 8.78 3.86 8.68 3.65C8.62 3.51 8.22 2.89 8.14 2.75C7.71 1.99 7.95 1.12 8.73 0.19C8.82 0.08 8.96 0.01 9.1 0C9.25 -0.01 9.39 0.03 9.5 0.12L9.5 0.12ZM13.24 7.41L13.24 10.72C13.68 10.72 14.1 10.55 14.41 10.24C14.72 9.93 14.89 9.5 14.89 9.07C14.89 8.63 14.72 8.21 14.41 7.9C14.1 7.58 13.68 7.41 13.24 7.41Z" fill="#000000" fill-opacity="1.000000" fill-rule="nonzero"/>
	</g>
</svg>
